<?xml version="1.0" encoding="UTF-8"?>
<svg width="70px" height="46px" viewBox="0 0 70 46" version="1.1" xmlns="http://www.w3.org/2000/svg" xmlns:xlink="http://www.w3.org/1999/xlink">
    <title>Regular-S</title>
    <g id="Page-1" stroke="none" stroke-width="1" fill="none" fill-rule="evenodd">
        <g id="sensor.tag.radiowaves.forward" transform="translate(-1441.000000, -1606.000000)" fill="#212121" fill-rule="nonzero">
            <g id="Symbols" transform="translate(513.828940, 0.000000)">
                <g id="Regular-S" transform="translate(927.867000, 1606.468800)">
                    <path d="M58.3013246,39.9679435 C58.7714022,40.5021306 59.3589992,40.7638831 60.0641156,40.7535152 C60.7692757,40.7425191 61.3996926,40.4273479 61.9553662,39.8076874 C64.0493164,37.4999748 65.6570851,34.8610768 66.7786722,31.8909933 C67.900697,28.9209098 68.4617093,25.7905745 68.4617093,22.4999875 C68.4617093,19.2094005 67.900697,16.0790653 66.7786722,13.1089818 C65.6570851,10.1388545 64.0493164,7.49995208 61.9553662,5.19227452 C61.3996926,4.57262279 60.7692757,4.25745812 60.0641156,4.24646663 C59.3589992,4.23610289 58.7714022,4.49785761 58.3013246,5.03204466 C57.8526022,5.54483272 57.6816509,6.11641331 57.7884709,6.74678641 C57.8953345,7.37711575 58.2051823,7.99142868 58.7180141,8.58972518 C60.3633732,10.4700794 61.6186275,12.5961499 62.4837768,14.967937 C63.3493638,17.339724 63.7821572,19.8504075 63.7821572,22.4999875 C63.7821572,25.1495676 63.3493638,27.6602511 62.4837768,30.0320381 C61.6186275,32.4038251 60.3633732,34.5298957 58.7180141,36.4102499 C58.2051823,37.0085464 57.8953345,37.6228593 57.7884709,38.2531886 C57.6816509,38.8835399 57.8526022,39.4551248 58.3013246,39.9679435 Z M51.1859635,32.7564052 C51.6773964,33.2905922 52.2917093,33.552347 53.0289023,33.5416693 C53.7660515,33.5309917 54.3910421,33.19445 54.9038739,32.532044 C55.972248,31.1431664 56.8055833,29.5886764 57.4038798,27.868574 C58.0021763,26.1484715 58.3013246,24.3589427 58.3013246,22.4999875 C58.3013246,20.6409886 58.0021763,18.8514598 57.4038798,17.1314011 C56.8055833,15.4112986 55.972248,13.8568086 54.9038739,12.4679311 C54.3910421,11.8055251 53.7660515,11.4689833 53.0289023,11.4583057 C52.2917093,11.4476281 51.6773964,11.7093828 51.1859635,12.2435699 C50.7372411,12.7777569 50.5769675,13.3493375 50.7051427,13.9583116 C50.8333616,14.5672857 51.1218322,15.1922763 51.5705546,15.8332832 C52.2543157,16.752127 52.7671257,17.7777687 53.1089844,18.9102085 C53.4508869,20.0426921 53.6218381,21.2392851 53.6218381,22.4999875 C53.6218381,23.76069 53.4508869,24.9572611 53.1089844,26.0897009 C52.7671257,27.2221844 52.2543157,28.2478262 51.5705546,29.1666262 C51.1218322,29.8076769 50.8333616,30.4326893 50.7051427,31.0416634 C50.5769675,31.6506376 50.7372411,32.2222181 51.1859635,32.7564052 Z" id="Shape"></path>
                    <path d="M22.5000269,45 C25.5555751,45 28.4401939,44.4070515 31.1538834,43.2211545 C33.8675291,42.0352566 36.2606933,40.4059839 38.3333758,38.3333364 C40.4060145,36.2606976 42.0299309,33.8675335 43.2051249,31.153844 C44.3803627,28.4401546 44.9679816,25.5555357 44.9679816,22.4999875 C44.9679816,19.4444393 44.3750239,16.5598205 43.1891085,13.846131 C42.0032369,11.1324415 40.3739598,8.73927742 38.3012773,6.66663866 C36.2286385,4.5939999 33.8354744,2.96472282 31.1217849,1.77880744 C28.4081392,0.592935813 25.5235423,0 22.4679941,0 C19.3910469,0 16.5010674,0.592935813 13.7980555,1.77880744 C11.0950874,2.96472282 8.70728396,4.5939999 6.6346452,6.66663866 C4.56196268,8.73927742 2.93802004,11.1324415 1.76281727,13.846131 C0.587605758,16.5598205 0,19.4444393 0,22.4999875 C0,25.5555357 0.587605758,28.4401546 1.76281727,31.153844 C2.93802004,33.8675335 4.56196268,36.2606976 6.6346452,38.3333364 C8.70728396,40.4059839 11.1004481,42.0352566 13.8141376,43.2211545 C16.5277833,44.4070515 19.4230797,45 22.5000269,45 Z M22.4679941,40.3846134 C19.9679882,40.3846134 17.6389116,39.9252156 15.4807644,39.00642 C13.322661,38.08762 11.4316292,36.8109011 9.80766903,35.1762633 C8.18375264,33.5416693 6.91239446,31.6452987 5.99359448,29.4871515 C5.0747945,27.3290481 4.61539451,24.9999934 4.61539451,22.4999875 C4.61539451,19.9999816 5.0747945,17.6709269 5.99359448,15.5128235 C6.91239446,13.3546763 8.18375264,11.4636445 9.80766903,9.83972813 C11.4316292,8.21576798 13.322661,6.94438792 15.4807644,6.02558794 C17.6389116,5.10678796 19.9572887,4.64738797 22.4358956,4.64738797 C24.9145463,4.64738797 27.2382621,5.10678796 29.4070432,6.02558794 C31.575868,6.94438792 33.4775774,8.21576798 35.1121714,9.83972813 C36.7468092,11.4636445 38.023528,13.3546763 38.942328,15.5128235 C39.861128,17.6709269 40.320528,19.9999816 40.320528,22.4999875 C40.320528,24.9999934 39.8664668,27.3290481 38.9583444,29.4871515 C38.0502221,31.6452987 36.7788639,33.5416693 35.1442699,35.1762633 C33.5096321,36.8109011 31.6079227,38.08762 29.4391417,39.00642 C27.2703169,39.9252156 24.946601,40.3846134 22.4679941,40.3846134 Z M22.5320598,15.9615459 C23.6431881,15.9615459 24.588704,15.5662335 25.3686074,14.7756086 C26.1485109,13.9850275 26.5384626,13.0234952 26.5384626,11.8910117 C26.5384626,10.7585281 26.1485109,9.79699579 25.3686074,9.00641471 C24.588704,8.21578986 23.6431881,7.82047744 22.5320598,7.82047744 C21.3995762,7.82047744 20.4327051,8.21578986 19.6314464,9.00641471 C18.8301439,9.79699579 18.4294927,10.7585281 18.4294927,11.8910117 C18.4294927,13.0234952 18.8301439,13.9850275 19.6314464,14.7756086 C20.4327051,15.5662335 21.3995762,15.9615459 22.5320598,15.9615459 Z" id="Shape"></path>
                </g>
            </g>
        </g>
    </g>
</svg>